<svg width="18" height="18" viewBox="0 0 18 18" fill="none" xmlns="http://www.w3.org/2000/svg">
<g clip-path="url(#clip0_76_11271)">
<path d="M9 9V13.5" stroke="#FFD700" stroke-width="1.5" stroke-linecap="round"/>
<path d="M9 13.5C7.74477 13.5 6.65228 14.259 6.08824 15.3787C5.81885 15.9135 6.20542 16.5 6.71908 16.5H11.2809C11.7946 16.5 12.1812 15.9135 11.9118 15.3787C11.3477 14.259 10.2552 13.5 9 13.5Z" stroke="#FFD700" stroke-width="1.5" stroke-linecap="round"/>
<path d="M3.75 3.75H2.98853C2.24864 3.75 1.87869 3.75 1.65013 4.0279C1.42156 4.30579 1.48859 4.61698 1.62264 5.23935C1.8787 6.42815 2.43411 7.47255 3.18667 8.25" stroke="#FFD700" stroke-width="1.5" stroke-linecap="round"/>
<path d="M14.25 3.75H15.0115C15.7514 3.75 16.1213 3.75 16.3499 4.0279C16.5784 4.30579 16.5114 4.61698 16.3774 5.23935C16.1213 6.42815 15.5659 7.47255 14.8133 8.25" stroke="#FFD700" stroke-width="1.5" stroke-linecap="round"/>
<path d="M9 9C11.8995 9 14.25 6.66233 14.25 3.77866C14.25 3.70304 14.2484 3.6278 14.2452 3.55297C14.2131 2.80355 14.1971 2.42883 13.6892 1.96442C13.1813 1.5 12.6186 1.5 11.493 1.5H6.50697C5.38145 1.5 4.81869 1.5 4.31079 1.96442C3.80289 2.42883 3.78686 2.80355 3.75482 3.55297C3.75162 3.6278 3.75 3.70304 3.75 3.77866C3.75 6.66233 6.1005 9 9 9Z" stroke="#FFD700" stroke-width="1.5" stroke-linecap="round"/>
</g>
<defs>
<clipPath id="clip0_76_11271">
<rect width="18" height="18" fill="white"/>
</clipPath>
</defs>
</svg>
