<svg width="18" height="18" viewBox="0 0 18 18" fill="none" xmlns="http://www.w3.org/2000/svg">
<path fill-rule="evenodd" clip-rule="evenodd" d="M9.375 1.125C9.78921 1.125 10.125 1.46079 10.125 1.875V2.70871C11.0481 2.84832 11.8905 3.15782 12.5698 3.60121C13.5103 4.21506 14.2188 5.14997 14.2188 6.29167C14.2188 6.70588 13.883 7.04167 13.4688 7.04167C13.0545 7.04167 12.7188 6.70588 12.7188 6.29167C12.7188 5.82254 12.4268 5.29911 11.75 4.85733C11.0799 4.41999 10.1097 4.125 9 4.125C7.89025 4.125 6.92011 4.41999 6.25004 4.85733C5.57318 5.29911 5.28125 5.82254 5.28125 6.29167C5.28125 6.59956 5.33911 6.83033 5.43443 7.00931C5.5278 7.18461 5.67871 7.35122 5.9308 7.50145C6.46417 7.81928 7.41394 8.04167 9 8.04167C10.6588 8.04167 12.0424 8.24874 13.031 8.81911C13.5405 9.11305 13.9508 9.50672 14.2282 10.0136C14.5039 10.5172 14.625 11.0895 14.625 11.7083C14.625 13.0784 13.8776 14.0372 12.7991 14.6102C12.0434 15.0117 11.1162 15.2344 10.125 15.3255V16.125C10.125 16.5392 9.78921 16.875 9.375 16.875C8.96079 16.875 8.625 16.5392 8.625 16.125V15.3672C7.31008 15.3123 6.0972 14.9704 5.16779 14.4143C4.1659 13.8149 3.375 12.8818 3.375 11.7083C3.375 11.2941 3.71079 10.9583 4.125 10.9583C4.53921 10.9583 4.875 11.2941 4.875 11.7083C4.875 12.1457 5.17541 12.6709 5.93792 13.1271C6.68516 13.5742 7.76599 13.875 9 13.875C10.2885 13.875 11.3671 13.6725 12.0952 13.2856C12.7811 12.9212 13.125 12.4216 13.125 11.7083C13.125 11.2855 13.043 10.9724 12.9124 10.7338C12.7836 10.4985 12.5845 10.2932 12.2815 10.1184C11.6451 9.75126 10.5912 9.54167 9 9.54167C7.33606 9.54167 6.05146 9.31947 5.16295 8.79001C4.7041 8.51659 4.3472 8.15887 4.11049 7.71442C3.87573 7.27363 3.78125 6.78919 3.78125 6.29167C3.78125 5.14997 4.48969 4.21506 5.43019 3.60121C6.28971 3.04022 7.41014 2.69357 8.625 2.63414V1.875C8.625 1.46079 8.96079 1.125 9.375 1.125Z" fill="#FFD700"/>
</svg>
